<?xml version="1.0" encoding="UTF-8" standalone="no"?>
<svg width="19px" height="16px" viewBox="0 0 19 16" version="1.1" xmlns="http://www.w3.org/2000/svg" xmlns:xlink="http://www.w3.org/1999/xlink" xmlns:sketch="http://www.bohemiancoding.com/sketch/ns">
    <!-- Generator: Sketch 3.3 (11970) - http://www.bohemiancoding.com/sketch -->
    <title>capriza-c</title>
    <desc>Created with Sketch.</desc>
    <defs></defs>
    <g id="Page-1" stroke="none" stroke-width="1" fill="none" fill-rule="evenodd" sketch:type="MSPage">
        <g id="Desktop-Portfolio" sketch:type="MSLayerGroup" transform="translate(-186.000000, -1274.000000)" fill="#555555">
            <g id="Capriza" transform="translate(0.000000, 599.000000)" sketch:type="MSShapeGroup">
                <g id="Capriza-:-Designer" transform="translate(0.000000, 600.000000)">
                    <path d="M204.999999,89.9512615 L204.999999,87.0404622 L204.999999,87.0404622 C203.825427,87.5780706 202.238396,87.8504375 200.277795,87.8504375 C196.308667,87.8504375 194.296263,86.2210465 194.296263,83.00751 C194.296263,79.5137857 195.920536,77.7423538 199.123989,77.7423538 C200.239456,77.7423538 201.184591,77.9778525 201.933651,78.4421742 C202.696587,78.9155821 203.083441,79.5230573 203.083441,80.247911 C203.083441,80.586139 203.009502,81.0094802 202.863633,81.5071797 C203.677976,81.6978041 204.396024,81.7958355 204.999999,81.7987951 L204.999999,75.9911179 C203.292187,75.3310439 201.334067,75 199.123989,75 C195.504837,75 192.412748,75.8196094 189.847722,77.4580866 C187.282513,79.0967491 186,81.0723417 186,83.3844932 C186,85.4557687 187.232673,87.2425914 189.698385,88.7453323 C192.163731,90.2482587 195.088591,91 198.4726,91 C201.06787,91 203.242565,90.6496353 204.999999,89.9512615 Z" id="capriza-c"></path>
                </g>
            </g>
        </g>
    </g>
</svg>