<?xml version="1.0" encoding="UTF-8" standalone="no"?>
<svg width="19px" height="16px" viewBox="0 0 19 16" version="1.1" xmlns="http://www.w3.org/2000/svg" xmlns:xlink="http://www.w3.org/1999/xlink" xmlns:sketch="http://www.bohemiancoding.com/sketch/ns">
    <!-- Generator: Sketch 3.3 (11970) - http://www.bohemiancoding.com/sketch -->
    <title>columns-blue</title>
    <desc>Created with Sketch.</desc>
    <defs></defs>
    <g id="Page-1" stroke="none" stroke-width="1" fill="none" fill-rule="evenodd" sketch:type="MSPage">
        <g id="Desktop-Portfolio" sketch:type="MSLayerGroup" transform="translate(-187.000000, -2881.000000)" fill="#3E97BD">
            <g id="Columns" transform="translate(0.000000, 2028.000000)" sketch:type="MSShapeGroup">
                <g id="Details" transform="translate(0.000000, 672.000000)">
                    <path d="M201.181818,181.124342 C200.351687,180.929939 199.4744,180.956914 198.636364,181.251871 L198.636364,194.754668 C198.989947,194.488408 199.399043,194.180532 199.878788,193.817482 C200.297952,193.500564 200.739619,193.160845 201.181818,192.797217 L201.181818,181.124342 Z M202.454545,181.61605 C204.017594,182.478684 205.181818,184.182849 205.181818,186.315731 C205.181818,188.444496 203.94865,190.211654 202.454545,191.666204 L202.454545,181.61605 Z M197.363636,181.94307 C196.903359,182.293485 196.47304,182.747528 196.090909,183.315031 C195.658875,182.673417 195.165244,182.176831 194.636364,181.811169 L194.636364,181.811169 L194.636364,195.606605 C195.28971,196.102623 195.676115,196.40744 196.090909,196.818182 C196.468224,196.444553 196.814719,196.148709 197.363636,195.721745 L197.363636,181.94307 L197.363636,181.94307 Z M193.363636,181.192822 C192.519346,180.936427 191.641951,180.945721 190.818182,181.174268 L190.818182,181.174268 L190.818182,192.625151 C191.322972,193.050097 191.829285,193.446435 192.30303,193.817482 C192.702135,194.129979 193.052797,194.401073 193.363636,194.639437 L193.363636,181.192822 L193.363636,181.192822 Z M189.545455,181.728268 C188.074792,182.624932 187,184.287251 187,186.351739 C187,188.386781 188.139294,190.063838 189.545455,191.467774 L189.545455,181.728268 L189.545455,181.728268 Z" id="columns-blue"></path>
                </g>
            </g>
        </g>
    </g>
</svg>