<?xml version="1.0" encoding="UTF-8" standalone="no"?>
<svg width="32px" height="31px" viewBox="0 0 32 31" version="1.1" xmlns="http://www.w3.org/2000/svg" xmlns:xlink="http://www.w3.org/1999/xlink" xmlns:sketch="http://www.bohemiancoding.com/sketch/ns">
    <!-- Generator: Sketch 3.3 (11970) - http://www.bohemiancoding.com/sketch -->
    <title>github</title>
    <desc>Created with Sketch.</desc>
    <defs></defs>
    <g id="Page-1" stroke="none" stroke-width="1" fill="none" fill-rule="evenodd" sketch:type="MSPage">
        <g id="Desktop-Portfolio" sketch:type="MSLayerGroup" transform="translate(-780.000000, -5611.000000)" fill="#3C93D7">
            <g id="Footer" transform="translate(0.000000, 5513.000000)" sketch:type="MSShapeGroup">
                <path d="M795.998527,98 C787.16437,98 780,105.115152 780,113.89275 C780,120.914242 784.584057,126.870365 790.942018,128.971837 C791.742534,129.118179 792.034255,128.627445 792.034255,128.20598 C792.034255,127.829393 792.020504,126.829389 792.012646,125.50353 C787.562172,126.463534 786.623162,123.372789 786.623162,123.372789 C785.895331,121.536684 784.846312,121.047901 784.846312,121.047901 C783.393597,120.062532 784.956322,120.082044 784.956322,120.082044 C786.562264,120.194239 787.40698,121.720099 787.40698,121.720099 C788.834157,124.148402 791.152215,123.446936 792.063722,123.040105 C792.209092,122.013759 792.62261,121.313268 793.079346,120.916194 C789.526628,120.515216 785.791215,119.151308 785.791215,113.061527 C785.791215,111.326885 786.41493,109.907367 787.438411,108.797118 C787.273397,108.395166 786.724332,106.778573 787.595568,104.591247 C787.595568,104.591247 788.938273,104.163928 791.994966,106.220522 C793.27088,105.86735 794.640106,105.69174 796.000491,105.68491 C797.359894,105.69174 798.728138,105.86735 800.006016,106.220522 C803.060745,104.163928 804.401486,104.591247 804.401486,104.591247 C805.274686,106.778573 804.725621,108.395166 804.561589,108.797118 C805.587035,109.907367 806.205838,111.326885 806.205838,113.061527 C806.205838,119.166918 802.464532,120.510338 798.90101,120.903511 C799.474631,121.394244 799.986372,122.364005 799.986372,123.846938 C799.986372,125.970849 799.966727,127.685002 799.966727,128.20598 C799.966727,128.631348 800.255502,129.125984 801.066822,128.970862 C807.419872,126.864511 812,120.912291 812,113.89275 C812,105.115152 804.83563,98 795.998527,98" id="github"></path>
            </g>
        </g>
    </g>
</svg>