<?xml version="1.0" encoding="UTF-8" standalone="no"?>
<svg width="24px" height="24px" viewBox="0 0 24 24" version="1.1" xmlns="http://www.w3.org/2000/svg" xmlns:xlink="http://www.w3.org/1999/xlink" xmlns:sketch="http://www.bohemiancoding.com/sketch/ns">
    <!-- Generator: Sketch 3.3 (11970) - http://www.bohemiancoding.com/sketch -->
    <title>olive</title>
    <desc>Created with Sketch.</desc>
    <defs></defs>
    <g id="Page-1" stroke="none" stroke-width="1" fill="none" fill-rule="evenodd" sketch:type="MSPage">
        <g id="Desktop-Portfolio" sketch:type="MSLayerGroup" transform="translate(-180.000000, -340.000000)">
            <g id="Jeremy" sketch:type="MSShapeGroup">
                <g id="olive" transform="translate(180.000000, 340.000000)">
                    <rect id="Bounds" fill-opacity="0" fill="#9B9B9B" x="0" y="0" width="24" height="24"></rect>
                    <path d="M12,21 C16.1421356,21 19.5,16.9705627 19.5,12 C19.5,7.02943725 16.1421356,3 12,3 C7.85786438,3 4.5,7.02943725 4.5,12 C4.5,16.9705627 7.85786438,21 12,21 Z M12,8 C13.9329966,8 15.5,7.1045695 15.5,6 C15.5,4.8954305 13.9329966,4 12,4 C10.0670034,4 8.5,4.8954305 8.5,6 C8.5,7.1045695 10.0670034,8 12,8 Z" id="Olive-:-Icon" fill="#FFFFFF" transform="translate(12.000000, 12.000000) rotate(-315.000000) translate(-12.000000, -12.000000) "></path>
                    <path d="M0.5,23.5 L23.5,0.5" id="Line" stroke="#FFFFFF" stroke-linecap="square"></path>
                </g>
            </g>
        </g>
    </g>
</svg>