<?xml version="1.0" encoding="UTF-8" standalone="no"?>
<svg width="32px" height="27px" viewBox="0 0 32 27" version="1.1" xmlns="http://www.w3.org/2000/svg" xmlns:xlink="http://www.w3.org/1999/xlink" xmlns:sketch="http://www.bohemiancoding.com/sketch/ns">
    <!-- Generator: Sketch 3.3 (11970) - http://www.bohemiancoding.com/sketch -->
    <title>twitter</title>
    <desc>Created with Sketch.</desc>
    <defs></defs>
    <g id="Page-1" stroke="none" stroke-width="1" fill="none" fill-rule="evenodd" sketch:type="MSPage">
        <g id="Desktop-Portfolio" sketch:type="MSLayerGroup" transform="translate(-716.000000, -5612.000000)" fill="#3C93D7">
            <g id="Footer" transform="translate(0.000000, 5513.000000)" sketch:type="MSShapeGroup">
                <path d="M746.793017,104.337711 C746.328746,104.832598 745.74079,105.320781 744.940118,105.880272 C744.687966,106.056408 744.573242,106.380035 744.662272,106.68233 C744.793129,107.130288 744.858258,107.658696 744.858258,108.244394 C744.860648,109.501115 744.55711,110.996137 744.120922,112.427165 C743.684138,113.860631 743.112314,115.231932 742.601438,116.269854 C741.156643,119.209922 738.70085,121.892795 735.82799,123.485942 C732.599608,125.275946 729.208701,125.999993 726.132089,125.999993 C723.319578,126.002431 720.772962,125.392964 718.88959,124.47145 C717.946709,124.011912 717.17173,123.473752 716.611857,122.9167 C716.364485,122.671694 716.16372,122.421813 716,122.17376 C716.08664,122.181073 716.175072,122.185949 716.268285,122.190825 C716.718812,122.21947 717.239249,122.247505 717.820633,122.247505 C719.59705,122.249943 721.956643,121.968979 724.862366,120.609868 C725.152161,120.473956 725.317673,120.157643 725.263897,119.835845 C725.212511,119.514656 724.955578,119.26965 724.638297,119.238567 C723.996564,119.173964 723.331528,118.99539 722.698758,118.721739 C721.751097,118.312177 720.882905,117.681379 720.271646,116.919546 C719.965717,116.538629 719.723126,116.126629 719.557016,115.69147 C719.526543,115.610411 719.501447,115.529352 719.475754,115.448292 C719.652619,115.5196 719.832471,115.586641 720.009934,115.639056 C720.584147,115.807878 721.111754,115.871872 721.765437,115.876748 C721.77201,115.879186 721.730184,115.884061 721.730184,115.884061 L721.730184,116.010221 L721.84431,116.010221 C722.232098,116.010221 722.549379,115.629304 722.556549,115.23437 C722.561329,114.838826 722.253011,114.47924 721.86582,114.472536 C720.68692,114.450595 719.50563,113.891105 718.602782,112.850745 C717.818243,111.946296 717.24403,110.656054 717.108991,108.9916 C717.328279,109.032434 717.559518,109.04889 717.823023,109.072659 C718.168388,109.103742 718.572309,109.132387 719.055102,109.189677 C719.417197,109.229902 719.751209,108.982458 719.825301,108.620435 C719.900588,108.255974 719.690262,107.89456 719.342508,107.784856 C718.89676,107.642241 718.556176,107.435022 718.280721,107.175389 C718.072785,106.980359 717.902493,106.753638 717.757894,106.494614 C717.540398,106.108822 717.388629,105.651722 717.293026,105.154397 C717.197423,104.6589 717.157987,104.125617 717.157987,103.597209 C717.157987,103.182771 717.18129,102.770772 717.218336,102.383151 C717.25359,102.008938 717.300196,101.6975 717.365325,101.42324 C717.465708,101.014288 717.598954,100.690052 717.823023,100.335342 C717.939539,100.151892 718.082345,99.956863 718.25921,99.7472064 C719.04853,100.804631 719.984241,101.773684 720.939072,102.594636 C722.110802,103.604522 723.291495,104.387687 724.272019,104.837474 C725.627785,105.454254 726.976977,105.970473 728.132574,106.358703 C728.709177,106.551295 729.238577,106.713413 729.696275,106.837135 C730.156363,106.960857 730.541163,107.049229 730.851872,107.096768 C731.084903,107.132726 731.318532,107.046791 731.476874,106.870655 C731.635814,106.692082 731.69676,106.447076 731.640594,106.21365 C731.556344,105.85894 731.514518,105.489603 731.514518,105.116 C731.512128,103.985439 731.897526,102.792103 732.513565,101.802329 C732.821287,101.306832 733.183382,100.861921 733.575352,100.49746 C733.967323,100.132999 734.385585,99.8520347 734.800859,99.6758988 C735.851293,99.2236743 736.901727,99 737.898385,99 C738.733713,99 739.529605,99.1548046 740.271721,99.46868 C741.012044,99.7807271 741.697993,100.252454 742.30746,100.892395 C742.316422,100.902146 742.328373,100.90946 742.337335,100.92104 C742.356456,100.938105 742.374979,100.956998 742.395892,100.971016 C742.414415,100.985643 742.432938,100.997223 742.452059,101.009412 C742.470582,101.020992 742.491495,101.033182 742.512408,101.042324 C742.533321,101.052075 742.554831,101.059389 742.575745,101.068531 C742.596658,101.075844 742.617571,101.083158 742.640874,101.090471 C742.664177,101.094738 742.68509,101.099613 742.708393,101.102051 C742.731696,101.104489 742.753207,101.109365 742.77651,101.109365 C742.802203,101.111803 742.825506,101.109365 742.8512,101.109365 L742.893026,101.109365 C743.681748,101.018554 744.419681,100.86375 745.236486,100.568768 C745.679843,100.409087 746.148894,100.206744 746.662758,99.9544252 C746.571338,100.256721 746.473345,100.523667 746.364,100.749779 C746.228363,101.030744 746.078984,101.249542 745.901522,101.428116 C745.724059,101.604252 745.516721,101.747477 745.231706,101.861447 C744.879171,102.002234 744.699318,102.402044 744.823004,102.766505 C744.94669,103.130357 745.329698,103.3327 745.691793,103.221168 C746.562375,102.954221 747.36245,102.732985 748,102.570867 C747.974307,102.620843 747.951004,102.670819 747.9277,102.718357 C747.605639,103.340014 747.257884,103.842214 746.793017,104.337711 L746.793017,104.337711 Z" id="twitter"></path>
            </g>
        </g>
    </g>
</svg>